<?xml version="1.0" encoding="UTF-8" standalone="no"?>
<!-- Created with Inkscape (http://www.inkscape.org/) -->

<svg
   xmlns:dc="http://purl.org/dc/elements/1.1/"
   xmlns:cc="http://creativecommons.org/ns#"
   xmlns:rdf="http://www.w3.org/1999/02/22-rdf-syntax-ns#"
   xmlns:svg="http://www.w3.org/2000/svg"
   xmlns="http://www.w3.org/2000/svg"
   xmlns:sodipodi="http://sodipodi.sourceforge.net/DTD/sodipodi-0.dtd"
   xmlns:inkscape="http://www.inkscape.org/namespaces/inkscape"
   width="109.67383"
   height="199.99774"
   id="svg3000"
   version="1.1"
   inkscape:version="0.48.2 r9819"
   sodipodi:docname="New document 2">
  <defs
     id="defs3002" />
  <sodipodi:namedview
     id="base"
     pagecolor="#ffffff"
     bordercolor="#666666"
     borderopacity="1.0"
     inkscape:pageopacity="0.0"
     inkscape:pageshadow="2"
     inkscape:zoom="2.6596064"
     inkscape:cx="54.836915"
     inkscape:cy="99.998881"
     inkscape:document-units="px"
     inkscape:current-layer="layer1"
     showgrid="false"
     fit-margin-top="6"
     fit-margin-left="6"
     fit-margin-right="6"
     fit-margin-bottom="6"
     inkscape:window-width="1024"
     inkscape:window-height="719"
     inkscape:window-x="-4"
     inkscape:window-y="-4"
     inkscape:window-maximized="1" />
  <metadata
     id="metadata3005">
    <rdf:RDF>
      <cc:Work
         rdf:about="">
        <dc:format>image/svg+xml</dc:format>
        <dc:type
           rdf:resource="http://purl.org/dc/dcmitype/StillImage" />
        <dc:title></dc:title>
      </cc:Work>
    </rdf:RDF>
  </metadata>
  <g
     inkscape:label="Layer 1"
     inkscape:groupmode="layer"
     id="layer1"
     transform="translate(-194.04659,-894.29244)">
    <g
       id="g3229"
       transform="matrix(0.2215005,0,0,0.2215005,136.45915,880.54429)">
      <rect
         y="108.56063"
         x="497.22141"
         height="809.88275"
         width="0.58435559"
         id="rect2166"
         style="fill:#ffffff;fill-rule:evenodd;stroke:#ffffff;stroke-width:38.82910538px;stroke-linecap:butt;stroke-linejoin:miter;stroke-opacity:1" />
      <rect
         transform="matrix(0.7111338,0.7030567,-0.7111338,0.7030567,0,0)"
         y="-341.77515"
         x="589.01849"
         height="481.00751"
         width="4.0710154"
         id="rect2168"
         style="fill:#ffffff;fill-rule:evenodd;stroke:#ffffff;stroke-width:46.11629105px;stroke-linecap:butt;stroke-linejoin:miter;stroke-opacity:1" />
      <path
         inkscape:connector-curvature="0"
         d="m 477.21595,619.19025 c 5.69017,-3.24415 10.61062,-7.69912 15.66672,-11.88721 22.50426,-18.99175 49.19225,-31.72338 74.10417,-46.86475 6.23739,-3.18648 12.93501,-4.33648 19.64223,-5.73739 4.8141,-2.66902 10.12025,-2.60583 15.3361,-3.33154 6.13923,-0.95509 12.31343,-1.73394 18.52188,-2.39255 7.2084,-0.10929 14.42339,1.08833 21.60687,1.83836 6.60424,0.1765 12.82108,2.42065 19.09397,4.23508 5.02665,1.8869 9.48228,4.88137 14.1448,7.41063 4.12235,3.43953 7.93501,7.24393 11.88387,10.90355 5.28402,4.35914 9.35153,9.8167 13.69223,15.09707 3.74524,4.99054 6.64568,10.55649 9.71377,15.99467 3.0266,5.16279 5.58861,10.53752 8.09194,15.99341 2.76404,5.39307 4.39832,11.25406 6.17705,17.04896 2.14493,6.36679 2.294,13.10065 2.82516,19.74579 0.29878,6.11531 0.26937,12.23949 0.29926,18.36036 0.0818,5.86195 -0.0616,11.72185 -0.16254,17.57893 -0.68949,5.62092 -1.69,11.20473 -2.57272,16.78149 -0.90681,4.77624 -2.92151,9.13509 -4.70909,13.59468 -1.81222,5.08724 -3.85489,10.07371 -5.86558,15.08607 -2.98224,6.01467 -5.96084,12.03152 -8.88246,18.07114 -2.37489,4.82222 -4.53499,9.77154 -6.69482,14.69148 -3.24072,4.87274 -6.34144,9.84239 -9.41913,14.82797 -3.15188,4.94309 -6.13825,9.99276 -9.19468,15.00975 -2.85914,3.66452 -5.47801,7.54131 -8.06083,11.40174 -2.82886,3.87413 -5.54772,7.81326 -8.23109,11.8064 -2.47456,4.6233 -5.93819,8.52963 -9.13342,12.60534 -4.32098,5.84711 -9.27025,11.12024 -14.17062,16.42608 -5.33478,5.65319 -10.80164,11.15737 -16.17448,16.77136 -3.70734,4.11274 -7.81693,7.79494 -11.7645,11.62766 -3.3169,3.92886 -7.46351,6.92271 -11.3309,10.20201 -4.69311,4.30979 -9.56239,8.42229 -14.34209,12.6367 -1.96907,1.84167 -3.88795,3.7404 -5.83193,5.6106 l -63.98871,27.56854 c 1.83256,-1.89122 3.60186,-3.84951 5.49768,-5.67364 4.50649,-4.35038 8.84298,-8.9619 14.01204,-12.47605 3.71281,-3.34149 7.12788,-6.9505 11.28162,-9.78364 4.05157,-3.94058 7.81773,-8.29344 12.30502,-11.80891 5.36328,-5.8016 10.74277,-11.53318 16.48168,-16.91094 4.65241,-5.07278 9.42435,-10.04299 13.72016,-15.45731 3.08234,-4.0339 6.06124,-8.01132 9.48142,-11.74854 2.65062,-4.10394 4.86569,-8.47983 7.7827,-12.38505 2.896,-3.81419 5.71038,-7.60307 8.19691,-11.77831 3.31607,-4.63315 6.71209,-9.31987 9.69932,-14.22124 3.06393,-4.99778 5.9814,-10.0783 9.08644,-15.0514 2.58309,-4.52303 5.6621,-8.7198 7.13334,-13.98598 2.86652,-5.9619 5.79329,-11.97044 9.16774,-17.68364 1.89309,-4.91931 4.01119,-9.77029 5.7231,-14.71274 1.67003,-4.30644 3.52299,-8.53183 5.01401,-12.82899 1.12523,-5.25202 2.69481,-10.39135 3.18857,-15.84943 0.26442,-5.54187 0.88005,-11.18945 0.54783,-16.81424 0.0264,-6.04509 0.0885,-12.09106 -0.0143,-18.13571 -0.32752,-6.03671 -0.31187,-12.14085 -2.06956,-17.97723 -1.66154,-5.55173 -3.13053,-11.20539 -5.83808,-16.32739 -2.39215,-5.04541 -4.52062,-10.21428 -7.54078,-14.91449 -2.80805,-5.32213 -5.58975,-10.69324 -9.08821,-15.58051 -4.22563,-4.87255 -8.20739,-9.92237 -13.39849,-13.79842 -3.70921,-3.48134 -7.21434,-7.30078 -11.51625,-9.99612 -4.25804,-2.05262 -8.40477,-4.43629 -12.91908,-5.87682 -5.95689,-1.41667 -11.88998,-3.0151 -18.06845,-3.08029 -6.88238,-0.79236 -13.77134,-1.97782 -20.68972,-0.78488 -6.25643,0.99969 -12.50602,2.08226 -18.80502,2.74337 -4.90908,1.24784 -9.85302,2.4529 -14.78414,3.5933 -6.30483,2.04001 -12.7173,3.79763 -18.41229,7.48143 161.64134,-99.39363 52.14237,-33.28941 44.82408,-25.97418 -4.84352,4.36572 -9.90839,8.39946 -14.779,12.66836 l -65.49077,26.41725 z"
         id="path2262"
         style="fill:#ffffff" />
    </g>
  </g>
</svg>
